<svg width="62" height="17" viewBox="0 0 62 17" fill="none" xmlns="http://www.w3.org/2000/svg">
<g opacity="1">
<mask id="path-1-outside-1_0_1" maskUnits="userSpaceOnUse" x="9" y="2" width="44" height="14" fill="black">
<rect fill="white" x="9" y="2" width="44" height="14"/>
<path d="M10.0568 12V3.27273H13.0057C13.6875 3.27273 14.2472 3.3892 14.6847 3.62216C15.1222 3.85227 15.446 4.16903 15.6562 4.57244C15.8665 4.97585 15.9716 5.43466 15.9716 5.94886C15.9716 6.46307 15.8665 6.91903 15.6562 7.31676C15.446 7.71449 15.1236 8.02699 14.6889 8.25426C14.2543 8.47869 13.6989 8.59091 13.0227 8.59091H10.6364V7.63636H12.9886C13.4545 7.63636 13.8295 7.56818 14.1136 7.43182C14.4006 7.29545 14.608 7.10227 14.7358 6.85227C14.8665 6.59943 14.9318 6.2983 14.9318 5.94886C14.9318 5.59943 14.8665 5.29403 14.7358 5.03267C14.6051 4.77131 14.3963 4.5696 14.1094 4.42756C13.8224 4.28267 13.4432 4.21023 12.9716 4.21023H11.1136V12H10.0568ZM14.1648 8.07955L16.3125 12H15.0852L12.9716 8.07955H14.1648ZM20.2702 12.1364C19.6396 12.1364 19.0955 11.9972 18.6381 11.7188C18.1836 11.4375 17.8327 11.0455 17.5856 10.5426C17.3413 10.0369 17.2191 9.44886 17.2191 8.77841C17.2191 8.10795 17.3413 7.51705 17.5856 7.00568C17.8327 6.49148 18.1765 6.09091 18.6168 5.80398C19.06 5.5142 19.5771 5.36932 20.168 5.36932C20.5089 5.36932 20.8455 5.42614 21.1779 5.53977C21.5103 5.65341 21.8129 5.83807 22.0856 6.09375C22.3583 6.34659 22.5756 6.68182 22.7376 7.09943C22.8995 7.51705 22.9805 8.03125 22.9805 8.64205V9.06818H17.935V8.19886H21.9577C21.9577 7.82955 21.8839 7.5 21.7362 7.21023C21.5913 6.92045 21.3839 6.69176 21.114 6.52415C20.8469 6.35653 20.5316 6.27273 20.168 6.27273C19.7674 6.27273 19.4208 6.37216 19.1282 6.57102C18.8384 6.76705 18.6154 7.02273 18.4592 7.33807C18.3029 7.65341 18.2248 7.99148 18.2248 8.35227V8.93182C18.2248 9.42614 18.31 9.84517 18.4805 10.1889C18.6538 10.5298 18.8938 10.7898 19.2006 10.9688C19.5075 11.1449 19.864 11.233 20.2702 11.233C20.5344 11.233 20.7731 11.196 20.9862 11.1222C21.2021 11.0455 21.3881 10.9318 21.5444 10.7812C21.7006 10.6278 21.8214 10.4375 21.9066 10.2102L22.8782 10.483C22.7759 10.8125 22.604 11.1023 22.3626 11.3523C22.1211 11.5994 21.8228 11.7926 21.4677 11.9318C21.1126 12.0682 20.7134 12.1364 20.2702 12.1364ZM29.4194 5.45455C29.3683 5.02273 29.1609 4.6875 28.7972 4.44886C28.4336 4.21023 27.9876 4.09091 27.4592 4.09091C27.0728 4.09091 26.7347 4.15341 26.445 4.27841C26.158 4.40341 25.9336 4.57528 25.7717 4.79403C25.6126 5.01278 25.533 5.26136 25.533 5.53977C25.533 5.77273 25.5884 5.97301 25.6992 6.14062C25.8129 6.3054 25.9577 6.44318 26.1339 6.55398C26.31 6.66193 26.4947 6.75142 26.6879 6.82244C26.881 6.89062 27.0586 6.94602 27.2205 6.98864L28.1069 7.22727C28.3342 7.28693 28.587 7.36932 28.8654 7.47443C29.1467 7.57955 29.4151 7.72301 29.6708 7.90483C29.9293 8.08381 30.1424 8.31392 30.31 8.59517C30.4776 8.87642 30.5614 9.22159 30.5614 9.63068C30.5614 10.1023 30.4379 10.5284 30.1907 10.9091C29.9464 11.2898 29.5884 11.5923 29.1168 11.8168C28.6481 12.0412 28.0785 12.1534 27.408 12.1534C26.783 12.1534 26.2418 12.0526 25.7844 11.8509C25.3299 11.6491 24.9719 11.3679 24.7106 11.0071C24.4521 10.6463 24.3058 10.2273 24.2717 9.75H25.3626C25.391 10.0795 25.5018 10.3523 25.695 10.5682C25.891 10.7812 26.1381 10.9403 26.4364 11.0455C26.7376 11.1477 27.0614 11.1989 27.408 11.1989C27.8114 11.1989 28.1737 11.1335 28.4947 11.0028C28.8157 10.8693 29.07 10.6847 29.2575 10.4489C29.445 10.2102 29.5387 9.93182 29.5387 9.61364C29.5387 9.32386 29.4577 9.08807 29.2958 8.90625C29.1339 8.72443 28.9208 8.5767 28.6566 8.46307C28.3924 8.34943 28.1069 8.25 27.8001 8.16477L26.7262 7.85795C26.0444 7.66193 25.5046 7.3821 25.1069 7.01847C24.7092 6.65483 24.5103 6.17898 24.5103 5.59091C24.5103 5.10227 24.6424 4.67614 24.9066 4.3125C25.1737 3.94602 25.5316 3.66193 25.9805 3.46023C26.4322 3.25568 26.9364 3.15341 27.4933 3.15341C28.0558 3.15341 28.5558 3.25426 28.9933 3.45597C29.4308 3.65483 29.7773 3.92756 30.033 4.27415C30.2915 4.62074 30.4279 5.0142 30.4421 5.45455H29.4194ZM35.0092 5.45455V6.30682H31.6172V5.45455H35.0092ZM32.6058 3.88636H33.6115V10.125C33.6115 10.4091 33.6527 10.6222 33.7351 10.7642C33.8203 10.9034 33.9283 10.9972 34.0589 11.0455C34.1925 11.0909 34.3331 11.1136 34.4808 11.1136C34.5916 11.1136 34.6825 11.108 34.7536 11.0966C34.8246 11.0824 34.8814 11.071 34.924 11.0625L35.1286 11.9659C35.0604 11.9915 34.9652 12.017 34.843 12.0426C34.7209 12.071 34.5661 12.0852 34.3786 12.0852C34.0945 12.0852 33.8161 12.0241 33.5433 11.902C33.2734 11.7798 33.049 11.5938 32.87 11.3438C32.6939 11.0938 32.6058 10.7784 32.6058 10.3977V3.88636ZM37.1697 14.4545C36.9993 14.4545 36.8473 14.4403 36.7138 14.4119C36.5803 14.3864 36.4879 14.3608 36.4368 14.3352L36.6925 13.4489C36.9368 13.5114 37.1527 13.5341 37.3402 13.517C37.5277 13.5 37.6939 13.4162 37.8388 13.2656C37.9865 13.1179 38.1214 12.8778 38.2436 12.5455L38.4311 12.0341L36.0107 5.45455H37.1016L38.9084 10.6705H38.9766L40.7834 5.45455H41.8743L39.0959 12.9545C38.9709 13.2926 38.8161 13.5724 38.6314 13.794C38.4467 14.0185 38.2322 14.1847 37.9879 14.2926C37.7464 14.4006 37.4737 14.4545 37.1697 14.4545ZM44.2074 3.27273V12H43.2017V3.27273H44.2074ZM48.7937 12.1364C48.163 12.1364 47.619 11.9972 47.1616 11.7188C46.707 11.4375 46.3562 11.0455 46.109 10.5426C45.8647 10.0369 45.7425 9.44886 45.7425 8.77841C45.7425 8.10795 45.8647 7.51705 46.109 7.00568C46.3562 6.49148 46.6999 6.09091 47.1403 5.80398C47.5835 5.5142 48.1005 5.36932 48.6914 5.36932C49.0323 5.36932 49.369 5.42614 49.7013 5.53977C50.0337 5.65341 50.3363 5.83807 50.609 6.09375C50.8817 6.34659 51.0991 6.68182 51.261 7.09943C51.4229 7.51705 51.5039 8.03125 51.5039 8.64205V9.06818H46.4585V8.19886H50.4812C50.4812 7.82955 50.4073 7.5 50.2596 7.21023C50.1147 6.92045 49.9073 6.69176 49.6374 6.52415C49.3704 6.35653 49.055 6.27273 48.6914 6.27273C48.2908 6.27273 47.9442 6.37216 47.6516 6.57102C47.3619 6.76705 47.1388 7.02273 46.9826 7.33807C46.8263 7.65341 46.7482 7.99148 46.7482 8.35227V8.93182C46.7482 9.42614 46.8335 9.84517 47.0039 10.1889C47.1772 10.5298 47.4173 10.7898 47.7241 10.9688C48.0309 11.1449 48.3874 11.233 48.7937 11.233C49.0579 11.233 49.2965 11.196 49.5096 11.1222C49.7255 11.0455 49.9116 10.9318 50.0678 10.7812C50.2241 10.6278 50.3448 10.4375 50.43 10.2102L51.4016 10.483C51.2994 10.8125 51.1275 11.1023 50.886 11.3523C50.6445 11.5994 50.3462 11.7926 49.9911 11.9318C49.636 12.0682 49.2369 12.1364 48.7937 12.1364Z"/>
</mask>
<path d="M10.0568 12V3.27273H13.0057C13.6875 3.27273 14.2472 3.3892 14.6847 3.62216C15.1222 3.85227 15.446 4.16903 15.6562 4.57244C15.8665 4.97585 15.9716 5.43466 15.9716 5.94886C15.9716 6.46307 15.8665 6.91903 15.6562 7.31676C15.446 7.71449 15.1236 8.02699 14.6889 8.25426C14.2543 8.47869 13.6989 8.59091 13.0227 8.59091H10.6364V7.63636H12.9886C13.4545 7.63636 13.8295 7.56818 14.1136 7.43182C14.4006 7.29545 14.608 7.10227 14.7358 6.85227C14.8665 6.59943 14.9318 6.2983 14.9318 5.94886C14.9318 5.59943 14.8665 5.29403 14.7358 5.03267C14.6051 4.77131 14.3963 4.5696 14.1094 4.42756C13.8224 4.28267 13.4432 4.21023 12.9716 4.21023H11.1136V12H10.0568ZM14.1648 8.07955L16.3125 12H15.0852L12.9716 8.07955H14.1648ZM20.2702 12.1364C19.6396 12.1364 19.0955 11.9972 18.6381 11.7188C18.1836 11.4375 17.8327 11.0455 17.5856 10.5426C17.3413 10.0369 17.2191 9.44886 17.2191 8.77841C17.2191 8.10795 17.3413 7.51705 17.5856 7.00568C17.8327 6.49148 18.1765 6.09091 18.6168 5.80398C19.06 5.5142 19.5771 5.36932 20.168 5.36932C20.5089 5.36932 20.8455 5.42614 21.1779 5.53977C21.5103 5.65341 21.8129 5.83807 22.0856 6.09375C22.3583 6.34659 22.5756 6.68182 22.7376 7.09943C22.8995 7.51705 22.9805 8.03125 22.9805 8.64205V9.06818H17.935V8.19886H21.9577C21.9577 7.82955 21.8839 7.5 21.7362 7.21023C21.5913 6.92045 21.3839 6.69176 21.114 6.52415C20.8469 6.35653 20.5316 6.27273 20.168 6.27273C19.7674 6.27273 19.4208 6.37216 19.1282 6.57102C18.8384 6.76705 18.6154 7.02273 18.4592 7.33807C18.3029 7.65341 18.2248 7.99148 18.2248 8.35227V8.93182C18.2248 9.42614 18.31 9.84517 18.4805 10.1889C18.6538 10.5298 18.8938 10.7898 19.2006 10.9688C19.5075 11.1449 19.864 11.233 20.2702 11.233C20.5344 11.233 20.7731 11.196 20.9862 11.1222C21.2021 11.0455 21.3881 10.9318 21.5444 10.7812C21.7006 10.6278 21.8214 10.4375 21.9066 10.2102L22.8782 10.483C22.7759 10.8125 22.604 11.1023 22.3626 11.3523C22.1211 11.5994 21.8228 11.7926 21.4677 11.9318C21.1126 12.0682 20.7134 12.1364 20.2702 12.1364ZM29.4194 5.45455C29.3683 5.02273 29.1609 4.6875 28.7972 4.44886C28.4336 4.21023 27.9876 4.09091 27.4592 4.09091C27.0728 4.09091 26.7347 4.15341 26.445 4.27841C26.158 4.40341 25.9336 4.57528 25.7717 4.79403C25.6126 5.01278 25.533 5.26136 25.533 5.53977C25.533 5.77273 25.5884 5.97301 25.6992 6.14062C25.8129 6.3054 25.9577 6.44318 26.1339 6.55398C26.31 6.66193 26.4947 6.75142 26.6879 6.82244C26.881 6.89062 27.0586 6.94602 27.2205 6.98864L28.1069 7.22727C28.3342 7.28693 28.587 7.36932 28.8654 7.47443C29.1467 7.57955 29.4151 7.72301 29.6708 7.90483C29.9293 8.08381 30.1424 8.31392 30.31 8.59517C30.4776 8.87642 30.5614 9.22159 30.5614 9.63068C30.5614 10.1023 30.4379 10.5284 30.1907 10.9091C29.9464 11.2898 29.5884 11.5923 29.1168 11.8168C28.6481 12.0412 28.0785 12.1534 27.408 12.1534C26.783 12.1534 26.2418 12.0526 25.7844 11.8509C25.3299 11.6491 24.9719 11.3679 24.7106 11.0071C24.4521 10.6463 24.3058 10.2273 24.2717 9.75H25.3626C25.391 10.0795 25.5018 10.3523 25.695 10.5682C25.891 10.7812 26.1381 10.9403 26.4364 11.0455C26.7376 11.1477 27.0614 11.1989 27.408 11.1989C27.8114 11.1989 28.1737 11.1335 28.4947 11.0028C28.8157 10.8693 29.07 10.6847 29.2575 10.4489C29.445 10.2102 29.5387 9.93182 29.5387 9.61364C29.5387 9.32386 29.4577 9.08807 29.2958 8.90625C29.1339 8.72443 28.9208 8.5767 28.6566 8.46307C28.3924 8.34943 28.1069 8.25 27.8001 8.16477L26.7262 7.85795C26.0444 7.66193 25.5046 7.3821 25.1069 7.01847C24.7092 6.65483 24.5103 6.17898 24.5103 5.59091C24.5103 5.10227 24.6424 4.67614 24.9066 4.3125C25.1737 3.94602 25.5316 3.66193 25.9805 3.46023C26.4322 3.25568 26.9364 3.15341 27.4933 3.15341C28.0558 3.15341 28.5558 3.25426 28.9933 3.45597C29.4308 3.65483 29.7773 3.92756 30.033 4.27415C30.2915 4.62074 30.4279 5.0142 30.4421 5.45455H29.4194ZM35.0092 5.45455V6.30682H31.6172V5.45455H35.0092ZM32.6058 3.88636H33.6115V10.125C33.6115 10.4091 33.6527 10.6222 33.7351 10.7642C33.8203 10.9034 33.9283 10.9972 34.0589 11.0455C34.1925 11.0909 34.3331 11.1136 34.4808 11.1136C34.5916 11.1136 34.6825 11.108 34.7536 11.0966C34.8246 11.0824 34.8814 11.071 34.924 11.0625L35.1286 11.9659C35.0604 11.9915 34.9652 12.017 34.843 12.0426C34.7209 12.071 34.5661 12.0852 34.3786 12.0852C34.0945 12.0852 33.8161 12.0241 33.5433 11.902C33.2734 11.7798 33.049 11.5938 32.87 11.3438C32.6939 11.0938 32.6058 10.7784 32.6058 10.3977V3.88636ZM37.1697 14.4545C36.9993 14.4545 36.8473 14.4403 36.7138 14.4119C36.5803 14.3864 36.4879 14.3608 36.4368 14.3352L36.6925 13.4489C36.9368 13.5114 37.1527 13.5341 37.3402 13.517C37.5277 13.5 37.6939 13.4162 37.8388 13.2656C37.9865 13.1179 38.1214 12.8778 38.2436 12.5455L38.4311 12.0341L36.0107 5.45455H37.1016L38.9084 10.6705H38.9766L40.7834 5.45455H41.8743L39.0959 12.9545C38.9709 13.2926 38.8161 13.5724 38.6314 13.794C38.4467 14.0185 38.2322 14.1847 37.9879 14.2926C37.7464 14.4006 37.4737 14.4545 37.1697 14.4545ZM44.2074 3.27273V12H43.2017V3.27273H44.2074ZM48.7937 12.1364C48.163 12.1364 47.619 11.9972 47.1616 11.7188C46.707 11.4375 46.3562 11.0455 46.109 10.5426C45.8647 10.0369 45.7425 9.44886 45.7425 8.77841C45.7425 8.10795 45.8647 7.51705 46.109 7.00568C46.3562 6.49148 46.6999 6.09091 47.1403 5.80398C47.5835 5.5142 48.1005 5.36932 48.6914 5.36932C49.0323 5.36932 49.369 5.42614 49.7013 5.53977C50.0337 5.65341 50.3363 5.83807 50.609 6.09375C50.8817 6.34659 51.0991 6.68182 51.261 7.09943C51.4229 7.51705 51.5039 8.03125 51.5039 8.64205V9.06818H46.4585V8.19886H50.4812C50.4812 7.82955 50.4073 7.5 50.2596 7.21023C50.1147 6.92045 49.9073 6.69176 49.6374 6.52415C49.3704 6.35653 49.055 6.27273 48.6914 6.27273C48.2908 6.27273 47.9442 6.37216 47.6516 6.57102C47.3619 6.76705 47.1388 7.02273 46.9826 7.33807C46.8263 7.65341 46.7482 7.99148 46.7482 8.35227V8.93182C46.7482 9.42614 46.8335 9.84517 47.0039 10.1889C47.1772 10.5298 47.4173 10.7898 47.7241 10.9688C48.0309 11.1449 48.3874 11.233 48.7937 11.233C49.0579 11.233 49.2965 11.196 49.5096 11.1222C49.7255 11.0455 49.9116 10.9318 50.0678 10.7812C50.2241 10.6278 50.3448 10.4375 50.43 10.2102L51.4016 10.483C51.2994 10.8125 51.1275 11.1023 50.886 11.3523C50.6445 11.5994 50.3462 11.7926 49.9911 11.9318C49.636 12.0682 49.2369 12.1364 48.7937 12.1364Z" fill="#FCFCFF"/>
<path d="M10.0568 12H9.05682V13H10.0568V12ZM10.0568 3.27273V2.27273H9.05682V3.27273H10.0568ZM14.6847 3.62216L14.2147 4.50484L14.2192 4.5072L14.6847 3.62216ZM15.6562 4.57244L14.7694 5.03458L14.7694 5.03458L15.6562 4.57244ZM15.6562 7.31676L14.7722 6.84945L14.7722 6.84945L15.6562 7.31676ZM14.6889 8.25426L15.1477 9.14282L15.1523 9.14043L14.6889 8.25426ZM10.6364 8.59091H9.63636V9.59091H10.6364V8.59091ZM10.6364 7.63636V6.63636H9.63636V7.63636H10.6364ZM14.1136 7.43182L13.6844 6.52862L13.6809 6.53029L14.1136 7.43182ZM14.7358 6.85227L13.8474 6.39312L13.8455 6.39698L14.7358 6.85227ZM14.1094 4.42756L13.6586 5.32024L13.6657 5.32375L14.1094 4.42756ZM11.1136 4.21023V3.21023H10.1136V4.21023H11.1136ZM11.1136 12V13H12.1136V12H11.1136ZM14.1648 8.07955L15.0418 7.59909L14.7572 7.07955H14.1648V8.07955ZM16.3125 12V13H18.0006L17.1895 11.5195L16.3125 12ZM15.0852 12L14.205 12.4746L14.4883 13H15.0852V12ZM12.9716 8.07955V7.07955H11.2964L12.0914 8.5541L12.9716 8.07955ZM10.0568 12H11.0568V3.27273H10.0568H9.05682V12H10.0568ZM10.0568 3.27273V4.27273H13.0057V3.27273V2.27273H10.0568V3.27273ZM13.0057 3.27273V4.27273C13.5821 4.27273 13.9659 4.37237 14.2147 4.50483L14.6847 3.62216L15.1547 2.73949C14.5284 2.40604 13.7929 2.27273 13.0057 2.27273V3.27273ZM14.6847 3.62216L14.2192 4.5072C14.4928 4.65115 14.6615 4.8275 14.7694 5.03458L15.6562 4.57244L16.5431 4.1103C16.2305 3.51057 15.7515 3.0534 15.1502 2.73712L14.6847 3.62216ZM15.6562 4.57244L14.7694 5.03458C14.8961 5.27761 14.9716 5.57437 14.9716 5.94886H15.9716H16.9716C16.9716 5.29495 16.8369 4.6741 16.5431 4.1103L15.6562 4.57244ZM15.9716 5.94886H14.9716C14.9716 6.32368 14.896 6.61516 14.7722 6.84945L15.6562 7.31676L16.5403 7.78407C16.837 7.22291 16.9716 6.60246 16.9716 5.94886H15.9716ZM15.6562 7.31676L14.7722 6.84945C14.6651 7.05197 14.4978 7.22575 14.2256 7.36809L14.6889 8.25426L15.1523 9.14043C15.7494 8.82822 16.2269 8.37701 16.5403 7.78407L15.6562 7.31676ZM14.6889 8.25426L14.2301 7.36572C13.981 7.49436 13.597 7.59091 13.0227 7.59091V8.59091V9.59091C13.8008 9.59091 14.5275 9.46303 15.1477 9.14281L14.6889 8.25426ZM13.0227 8.59091V7.59091H10.6364V8.59091V9.59091H13.0227V8.59091ZM10.6364 8.59091H11.6364V7.63636H10.6364H9.63636V8.59091H10.6364ZM10.6364 7.63636V8.63636H12.9886V7.63636V6.63636H10.6364V7.63636ZM12.9886 7.63636V8.63636C13.5385 8.63636 14.0783 8.55799 14.5464 8.33334L14.1136 7.43182L13.6809 6.53029C13.5807 6.57837 13.3706 6.63636 12.9886 6.63636V7.63636ZM14.1136 7.43182L14.5429 8.33501C15.0012 8.1172 15.3851 7.77896 15.6261 7.30756L14.7358 6.85227L13.8455 6.39698C13.8308 6.42558 13.7999 6.47371 13.6844 6.52863L14.1136 7.43182ZM14.7358 6.85227L15.6242 7.31142C15.8431 6.88791 15.9318 6.42223 15.9318 5.94886H14.9318H13.9318C13.9318 6.17436 13.8899 6.31096 13.8474 6.39312L14.7358 6.85227ZM14.9318 5.94886H15.9318C15.9318 5.47431 15.8427 5.01032 15.6302 4.58546L14.7358 5.03267L13.8414 5.47988C13.8903 5.57775 13.9318 5.72456 13.9318 5.94886H14.9318ZM14.7358 5.03267L15.6302 4.58546C15.3928 4.11053 15.0154 3.76023 14.553 3.53136L14.1094 4.42756L13.6657 5.32375C13.7773 5.37897 13.8175 5.43209 13.8414 5.47988L14.7358 5.03267ZM14.1094 4.42756L14.5601 3.5349C14.0835 3.29424 13.5322 3.21023 12.9716 3.21023V4.21023V5.21023C13.3542 5.21023 13.5614 5.2711 13.6586 5.32021L14.1094 4.42756ZM12.9716 4.21023V3.21023H11.1136V4.21023V5.21023H12.9716V4.21023ZM11.1136 4.21023H10.1136V12H11.1136H12.1136V4.21023H11.1136ZM11.1136 12V11H10.0568V12V13H11.1136V12ZM14.1648 8.07955L13.2878 8.56L15.4355 12.4805L16.3125 12L17.1895 11.5195L15.0418 7.59909L14.1648 8.07955ZM16.3125 12V11H15.0852V12V13H16.3125V12ZM15.0852 12L15.9655 11.5254L13.8518 7.60499L12.9716 8.07955L12.0914 8.5541L14.205 12.4746L15.0852 12ZM12.9716 8.07955V9.07955H14.1648V8.07955V7.07955H12.9716V8.07955ZM18.6381 11.7188L18.112 12.5692L18.1182 12.5729L18.6381 11.7188ZM17.5856 10.5426L16.6851 10.9777L16.6881 10.9837L17.5856 10.5426ZM17.5856 7.00568L16.6843 6.57246L16.6833 6.57458L17.5856 7.00568ZM18.6168 5.80398L19.1628 6.6418L19.1641 6.64095L18.6168 5.80398ZM21.1779 5.53977L21.5014 4.59354H21.5014L21.1779 5.53977ZM22.0856 6.09375L21.4016 6.8233L21.4057 6.82709L22.0856 6.09375ZM22.7376 7.09943L23.6699 6.7379L23.6699 6.7379L22.7376 7.09943ZM22.9805 9.06818V10.0682H23.9805V9.06818H22.9805ZM17.935 9.06818H16.935V10.0682H17.935V9.06818ZM17.935 8.19886V7.19886H16.935V8.19886H17.935ZM21.9577 8.19886V9.19886H22.9577V8.19886H21.9577ZM21.7362 7.21023L20.8417 7.65745L20.8452 7.66441L21.7362 7.21023ZM21.114 6.52415L20.5824 7.37114L20.5864 7.37365L21.114 6.52415ZM19.1282 6.57102L19.6885 7.39931L19.6903 7.3981L19.1282 6.57102ZM18.4592 7.33807L17.5631 6.89409V6.89409L18.4592 7.33807ZM18.4805 10.1889L17.5845 10.6332L17.589 10.6421L18.4805 10.1889ZM19.2006 10.9688L18.6968 11.8326L18.7028 11.836L19.2006 10.9688ZM20.9862 11.1222L21.3137 12.067L21.3209 12.0645L20.9862 11.1222ZM21.5444 10.7812L22.2383 11.5014L22.245 11.4948L21.5444 10.7812ZM21.9066 10.2102L22.1769 9.24744L21.2927 8.99926L20.9703 9.8591L21.9066 10.2102ZM22.8782 10.483L23.8333 10.7794L24.1379 9.79789L23.1485 9.52017L22.8782 10.483ZM22.3626 11.3523L23.0779 12.0511L23.0818 12.047L22.3626 11.3523ZM21.4677 11.9318L21.8262 12.8654L21.8326 12.8628L21.4677 11.9318ZM20.2702 12.1364V11.1364C19.79 11.1364 19.4328 11.0318 19.1581 10.8646L18.6381 11.7188L18.1182 12.5729C18.7582 12.9625 19.4891 13.1364 20.2702 13.1364V12.1364ZM18.6381 11.7188L19.1643 10.8684C18.8774 10.6908 18.6515 10.4443 18.483 10.1015L17.5856 10.5426L16.6881 10.9837C17.014 11.6466 17.4898 12.1842 18.112 12.5691L18.6381 11.7188ZM17.5856 10.5426L18.486 10.1076C18.3187 9.76136 18.2191 9.32708 18.2191 8.77841H17.2191H16.2191C16.2191 9.57065 16.3638 10.3125 16.6852 10.9776L17.5856 10.5426ZM17.2191 8.77841H18.2191C18.2191 8.23008 18.3186 7.79108 18.4879 7.43678L17.5856 7.00568L16.6833 6.57458C16.3639 7.24301 16.2191 7.98582 16.2191 8.77841H17.2191ZM17.5856 7.00568L18.4869 7.4389C18.6618 7.07492 18.8887 6.82041 19.1628 6.6418L18.6168 5.80398L18.0709 4.96615C17.4643 5.36141 17.0037 5.90803 16.6843 6.57246L17.5856 7.00568ZM18.6168 5.80398L19.1641 6.64095C19.4261 6.46964 19.7481 6.36932 20.168 6.36932V5.36932V4.36932C19.406 4.36932 18.6939 4.55877 18.0696 4.96701L18.6168 5.80398ZM20.168 5.36932V6.36932C20.3955 6.36932 20.623 6.40687 20.8544 6.486L21.1779 5.53977L21.5014 4.59354C21.0681 4.4454 20.6223 4.36932 20.168 4.36932V5.36932ZM21.1779 5.53977L20.8544 6.486C21.0441 6.55087 21.2256 6.65823 21.4016 6.82329L22.0856 6.09375L22.7695 5.36421C22.4001 5.01791 21.9764 4.75595 21.5014 4.59354L21.1779 5.53977ZM22.0856 6.09375L21.4057 6.82709C21.5467 6.95779 21.6871 7.1563 21.8052 7.46096L22.7376 7.09943L23.6699 6.7379C23.4642 6.20734 23.1699 5.73539 22.7654 5.36041L22.0856 6.09375ZM22.7376 7.09943L21.8052 7.46096C21.9094 7.72969 21.9805 8.11287 21.9805 8.64205H22.9805H23.9805C23.9805 7.94963 23.8896 7.3044 23.6699 6.7379L22.7376 7.09943ZM22.9805 8.64205H21.9805V9.06818H22.9805H23.9805V8.64205H22.9805ZM22.9805 9.06818V8.06818H17.935V9.06818V10.0682H22.9805V9.06818ZM17.935 9.06818H18.935V8.19886H17.935H16.935V9.06818H17.935ZM17.935 8.19886V9.19886H21.9577V8.19886V7.19886H17.935V8.19886ZM21.9577 8.19886H22.9577C22.9577 7.69321 22.8557 7.2045 22.6271 6.75604L21.7362 7.21023L20.8452 7.66441C20.9121 7.7955 20.9577 7.96588 20.9577 8.19886H21.9577ZM21.7362 7.21023L22.6306 6.76301C22.4047 6.31124 22.0718 5.94186 21.6416 5.67465L21.114 6.52415L20.5864 7.37365C20.6959 7.44166 20.7778 7.52966 20.8417 7.65744L21.7362 7.21023ZM21.114 6.52415L21.6456 5.67716C21.196 5.39499 20.6902 5.27273 20.168 5.27273V6.27273V7.27273C20.373 7.27273 20.4978 7.31808 20.5824 7.37113L21.114 6.52415ZM20.168 6.27273V5.27273C19.5944 5.27273 19.0458 5.41791 18.5661 5.74395L19.1282 6.57102L19.6903 7.3981C19.7958 7.3264 19.9404 7.27273 20.168 7.27273V6.27273ZM19.1282 6.57102L18.5679 5.74274C18.134 6.03628 17.7957 6.42474 17.5631 6.89409L18.4592 7.33807L19.3552 7.78205C19.4351 7.62072 19.5429 7.49781 19.6885 7.39931L19.1282 6.57102ZM18.4592 7.33807L17.5631 6.89409C17.3367 7.35099 17.2248 7.84147 17.2248 8.35227H18.2248H19.2248C19.2248 8.14149 19.2691 7.95583 19.3552 7.78205L18.4592 7.33807ZM18.2248 8.35227H17.2248V8.93182H18.2248H19.2248V8.35227H18.2248ZM18.2248 8.93182H17.2248C17.2248 9.5373 17.3288 10.1174 17.5846 10.6332L18.4805 10.1889L19.3764 9.74467C19.2912 9.57293 19.2248 9.31497 19.2248 8.93182H18.2248ZM18.4805 10.1889L17.589 10.6421C17.8424 11.1405 18.2112 11.5493 18.6968 11.8325L19.2006 10.9688L19.7045 10.105C19.5764 10.0303 19.4651 9.91912 19.3719 9.73577L18.4805 10.1889ZM19.2006 10.9688L18.7028 11.836C19.1824 12.1113 19.7156 12.233 20.2702 12.233V11.233V10.233C20.0124 10.233 19.8326 10.1784 19.6985 10.1015L19.2006 10.9688ZM20.2702 11.233V12.233C20.6272 12.233 20.979 12.183 21.3137 12.067L20.9862 11.1222L20.6586 10.1773C20.5672 10.209 20.4417 10.233 20.2702 10.233V11.233ZM20.9862 11.1222L21.3209 12.0645C21.6633 11.9428 21.9738 11.7562 22.2383 11.5013L21.5444 10.7812L20.8505 10.0612C20.8025 10.1075 20.7408 10.1481 20.6514 10.1799L20.9862 11.1222ZM21.5444 10.7812L22.245 11.4948C22.5161 11.2286 22.7121 10.9102 22.8429 10.5614L21.9066 10.2102L20.9703 9.8591C20.9307 9.96476 20.8852 10.0271 20.8438 10.0677L21.5444 10.7812ZM21.9066 10.2102L21.6363 11.173L22.6079 11.4457L22.8782 10.483L23.1485 9.52017L22.1769 9.24744L21.9066 10.2102ZM22.8782 10.483L21.9231 10.1866C21.8676 10.3656 21.7769 10.5192 21.6433 10.6575L22.3626 11.3523L23.0818 12.047C23.4312 11.6854 23.6843 11.2594 23.8333 10.7794L22.8782 10.483ZM22.3626 11.3523L21.6473 10.6534C21.5147 10.7892 21.3397 10.9079 21.1027 11.0008L21.4677 11.9318L21.8326 12.8628C22.3059 12.6773 22.7275 12.4097 23.0779 12.0511L22.3626 11.3523ZM21.4677 11.9318L21.1092 10.9983C20.8857 11.0841 20.6108 11.1364 20.2702 11.1364V12.1364V13.1364C20.8161 13.1364 21.3394 13.0523 21.8262 12.8654L21.4677 11.9318ZM29.4194 5.45455L28.4263 5.57214L28.5308 6.45455H29.4194V5.45455ZM28.7972 4.44886L28.2486 5.28491L28.7972 4.44886ZM26.445 4.27841L26.0489 3.36019L26.0456 3.36163L26.445 4.27841ZM25.7717 4.79403L24.9679 4.19903L24.9629 4.20586L25.7717 4.79403ZM25.6992 6.14062L24.865 6.69206L24.8704 6.70026L24.876 6.70836L25.6992 6.14062ZM26.1339 6.55398L25.6014 7.4005L25.6113 7.40658L26.1339 6.55398ZM26.6879 6.82244L26.3428 7.7611L26.355 7.76543L26.6879 6.82244ZM27.2205 6.98864L27.4805 6.02301L27.475 6.02156L27.2205 6.98864ZM28.1069 7.22727L27.8469 8.19291L27.853 8.1945L28.1069 7.22727ZM28.8654 7.47443L28.5122 8.40998L28.5153 8.41115L28.8654 7.47443ZM29.6708 7.90483L29.0912 8.71985L29.1016 8.72702L29.6708 7.90483ZM30.31 8.59517L31.169 8.08323V8.08323L30.31 8.59517ZM30.1907 10.9091L29.352 10.3645L29.3491 10.369L30.1907 10.9091ZM29.1168 11.8168L28.6871 10.9138L28.685 10.9148L29.1168 11.8168ZM25.7844 11.8509L25.3788 12.7649L25.3809 12.7658L25.7844 11.8509ZM24.7106 11.0071L23.8977 11.5896L23.9007 11.5938L24.7106 11.0071ZM24.2717 9.75V8.75H23.1977L23.2742 9.82125L24.2717 9.75ZM25.3626 9.75L26.3589 9.66411L26.2801 8.75H25.3626V9.75ZM25.695 10.5682L24.9496 11.235L24.959 11.2452L25.695 10.5682ZM26.4364 11.0455L26.1041 11.9887L26.1149 11.9923L26.4364 11.0455ZM28.4947 11.0028L28.8717 11.9291L28.8787 11.9262L28.4947 11.0028ZM29.2575 10.4489L30.0402 11.0713L30.0438 11.0667L29.2575 10.4489ZM29.2958 8.90625L30.0426 8.24116L29.2958 8.90625ZM28.6566 8.46307L28.2615 9.3817L28.6566 8.46307ZM27.8001 8.16477L27.5253 9.12632L27.5324 9.12829L27.8001 8.16477ZM26.7262 7.85795L26.4499 8.81903L26.4515 8.81948L26.7262 7.85795ZM25.1069 7.01847L24.4321 7.75649L24.4321 7.75649L25.1069 7.01847ZM24.9066 4.3125L24.0984 3.72358L24.0976 3.7247L24.9066 4.3125ZM25.9805 3.46023L26.3904 4.37237L26.393 4.37118L25.9805 3.46023ZM28.9933 3.45597L28.5746 4.36411L28.5795 4.36633L28.9933 3.45597ZM30.033 4.27415L29.2283 4.8678L29.2315 4.87204L30.033 4.27415ZM30.4421 5.45455V6.45455H31.4749L31.4416 5.4223L30.4421 5.45455ZM29.4194 5.45455L30.4125 5.33695C30.3266 4.61167 29.9564 4.01349 29.3459 3.61282L28.7972 4.44886L28.2486 5.28491C28.3653 5.36151 28.4099 5.43378 28.4263 5.57214L29.4194 5.45455ZM28.7972 4.44886L29.3459 3.61282C28.7872 3.24616 28.1402 3.09091 27.4592 3.09091V4.09091V5.09091C27.8349 5.09091 28.08 5.17429 28.2486 5.28491L28.7972 4.44886ZM27.4592 4.09091V3.09091C26.9663 3.09091 26.4884 3.17058 26.0489 3.3602L26.445 4.27841L26.841 5.19662C26.981 5.13624 27.1793 5.09091 27.4592 5.09091V4.09091ZM26.445 4.27841L26.0456 3.36163C25.6224 3.54597 25.2489 3.81949 24.9679 4.19906L25.7717 4.79403L26.5754 5.38901C26.6183 5.33108 26.6936 5.26084 26.8443 5.19519L26.445 4.27841ZM25.7717 4.79403L24.9629 4.20586C24.6757 4.60082 24.533 5.05665 24.533 5.53977H25.533H26.533C26.533 5.46608 26.5495 5.42475 26.5804 5.38221L25.7717 4.79403ZM25.533 5.53977H24.533C24.533 5.93678 24.6297 6.33604 24.865 6.69206L25.6992 6.14062L26.5334 5.58919C26.5379 5.59592 26.5391 5.6006 26.5384 5.59812C26.5374 5.59456 26.533 5.57688 26.533 5.53977H25.533ZM25.6992 6.14062L24.876 6.70836C25.0697 6.98923 25.3151 7.22034 25.6014 7.40044L26.1339 6.55398L26.6663 5.70752C26.6004 5.66603 26.556 5.62157 26.5224 5.57289L25.6992 6.14062ZM26.1339 6.55398L25.6113 7.40658C25.8434 7.54884 26.0875 7.66717 26.3428 7.76102L26.6879 6.82244L27.0329 5.88386C26.9018 5.83567 26.7766 5.77502 26.6564 5.70138L26.1339 6.55398ZM26.6879 6.82244L26.355 7.76543C26.5685 7.84079 26.7726 7.90481 26.966 7.95571L27.2205 6.98864L27.475 6.02156C27.3446 5.98723 27.1935 5.94046 27.0207 5.87945L26.6879 6.82244ZM27.2205 6.98864L26.9606 7.95425L27.8469 8.19289L28.1069 7.22727L28.3669 6.26166L27.4805 6.02302L27.2205 6.98864ZM28.1069 7.22727L27.853 8.1945C28.0392 8.24338 28.2582 8.31408 28.5122 8.40997L28.8654 7.47443L29.2186 6.53889C28.9158 6.42456 28.6292 6.33049 28.3608 6.26004L28.1069 7.22727ZM28.8654 7.47443L28.5153 8.41115C28.7115 8.48448 28.9033 8.58609 29.0913 8.71978L29.6708 7.90483L30.2503 7.08987C29.927 6.85993 29.5818 6.67461 29.2155 6.53771L28.8654 7.47443ZM29.6708 7.90483L29.1016 8.72702C29.2375 8.82114 29.3536 8.94363 29.451 9.10711L30.31 8.59517L31.169 8.08323C30.9312 7.68421 30.6211 7.34647 30.24 7.08264L29.6708 7.90483ZM30.31 8.59517L29.451 9.10711C29.5059 9.19928 29.5614 9.35727 29.5614 9.63068H30.5614H31.5614C31.5614 9.08592 31.4493 8.55356 31.169 8.08323L30.31 8.59517ZM30.5614 9.63068H29.5614C29.5614 9.91694 29.4896 10.1525 29.352 10.3645L30.1907 10.9091L31.0294 11.4536C31.3861 10.9043 31.5614 10.2876 31.5614 9.63068H30.5614ZM30.1907 10.9091L29.3491 10.369C29.2203 10.5696 29.0168 10.7569 28.6871 10.9138L29.1168 11.8168L29.5466 12.7197C30.16 12.4278 30.6724 12.0099 31.0323 11.4492L30.1907 10.9091ZM29.1168 11.8168L28.685 10.9148C28.3843 11.0588 27.9708 11.1534 27.408 11.1534V12.1534V13.1534C28.1862 13.1534 28.9119 13.0236 29.5487 12.7187L29.1168 11.8168ZM27.408 12.1534V11.1534C26.8883 11.1534 26.4906 11.0693 26.1879 10.9359L25.7844 11.8509L25.3809 12.7658C25.9931 13.0358 26.6778 13.1534 27.408 13.1534V12.1534ZM25.7844 11.8509L26.1901 10.9368C25.8776 10.7982 25.6666 10.6223 25.5204 10.4204L24.7106 11.0071L23.9007 11.5938C24.2773 12.1135 24.7822 12.5001 25.3788 12.7649L25.7844 11.8509ZM24.7106 11.0071L25.5235 10.4247C25.3809 10.2257 25.2911 9.98678 25.2691 9.67875L24.2717 9.75L23.2742 9.82125C23.3204 10.4678 23.5233 11.0669 23.8977 11.5896L24.7106 11.0071ZM24.2717 9.75V10.75H25.3626V9.75V8.75H24.2717V9.75ZM25.3626 9.75L24.3663 9.83589C24.4105 10.3492 24.5922 10.8354 24.9497 11.235L25.695 10.5682L26.4402 9.90139C26.4114 9.86917 26.3714 9.80987 26.3589 9.66411L25.3626 9.75ZM25.695 10.5682L24.959 11.2452C25.2758 11.5896 25.6661 11.8343 26.1041 11.9886L26.4364 11.0455L26.7688 10.1023C26.6102 10.0464 26.5062 9.97295 26.4309 9.89112L25.695 10.5682ZM26.4364 11.0455L26.1149 11.9923C26.5284 12.1328 26.9619 12.1989 27.408 12.1989V11.1989V10.1989C27.161 10.1989 26.9467 10.1627 26.758 10.0986L26.4364 11.0455ZM27.408 11.1989V12.1989C27.9198 12.1989 28.413 12.1158 28.8717 11.929L28.4947 11.0028L28.1176 10.0766C27.9343 10.1513 27.7031 10.1989 27.408 10.1989V11.1989ZM28.4947 11.0028L28.8787 11.9262C29.3316 11.7378 29.7321 11.4586 30.0402 11.0713L29.2575 10.4489L28.4748 9.82647C28.4078 9.91068 28.2997 10.0009 28.1106 10.0795L28.4947 11.0028ZM29.2575 10.4489L30.0438 11.0667C30.3767 10.6429 30.5387 10.1442 30.5387 9.61364H29.5387H28.5387C28.5387 9.71943 28.5132 9.77755 28.4711 9.83104L29.2575 10.4489ZM29.5387 9.61364H30.5387C30.5387 9.1278 30.3976 8.6398 30.0426 8.24116L29.2958 8.90625L28.549 9.57134C28.5453 9.56716 28.5412 9.56168 28.5377 9.55551C28.5341 9.54939 28.5325 9.54515 28.5322 9.54422C28.5315 9.54219 28.5387 9.56169 28.5387 9.61364H29.5387ZM29.2958 8.90625L30.0426 8.24116C29.7673 7.9321 29.4262 7.70549 29.0517 7.54444L28.6566 8.46307L28.2615 9.3817C28.4155 9.44792 28.5004 9.51677 28.549 9.57134L29.2958 8.90625ZM28.6566 8.46307L29.0517 7.54444C28.742 7.41121 28.4134 7.29729 28.0677 7.20125L27.8001 8.16477L27.5324 9.12829C27.8003 9.20271 28.0428 9.28766 28.2615 9.3817L28.6566 8.46307ZM27.8001 8.16477L28.0748 7.20325L27.0009 6.89643L26.7262 7.85795L26.4515 8.81948L27.5254 9.1263L27.8001 8.16477ZM26.7262 7.85795L27.0025 6.89688C26.4239 6.73054 26.0354 6.51242 25.7817 6.28044L25.1069 7.01847L24.4321 7.75649C24.9738 8.25178 25.6649 8.59332 26.4499 8.81902L26.7262 7.85795ZM25.1069 7.01847L25.7817 6.28044C25.6114 6.12473 25.5103 5.92684 25.5103 5.59091H24.5103H23.5103C23.5103 6.43112 23.807 7.18493 24.4321 7.75649L25.1069 7.01847ZM24.5103 5.59091H25.5103C25.5103 5.29405 25.5865 5.07802 25.7156 4.9003L24.9066 4.3125L24.0976 3.7247C23.6983 4.27425 23.5103 4.9105 23.5103 5.59091H24.5103ZM24.9066 4.3125L25.7148 4.90142C25.8708 4.68732 26.0862 4.50905 26.3904 4.37236L25.9805 3.46023L25.5706 2.54809C24.977 2.81481 24.4765 3.20472 24.0984 3.72358L24.9066 4.3125ZM25.9805 3.46023L26.393 4.37118C26.7 4.23215 27.0612 4.15341 27.4933 4.15341V3.15341V2.15341C26.8117 2.15341 26.1644 2.27921 25.568 2.54927L25.9805 3.46023ZM27.4933 3.15341V4.15341C27.9352 4.15341 28.2886 4.23224 28.5746 4.3641L28.9933 3.45597L29.4119 2.54783C28.8229 2.27628 28.1763 2.15341 27.4933 2.15341V3.15341ZM28.9933 3.45597L28.5795 4.36633C28.8801 4.503 29.0851 4.67371 29.2283 4.8678L30.033 4.27415L30.8377 3.6805C30.4696 3.18141 29.9814 2.80666 29.4071 2.5456L28.9933 3.45597ZM30.033 4.27415L29.2315 4.87204C29.3653 5.05147 29.4349 5.24666 29.4426 5.48679L30.4421 5.45455L31.4416 5.4223C31.4209 4.78174 31.2178 4.19001 30.8346 3.67625L30.033 4.27415ZM30.4421 5.45455V4.45455H29.4194V5.45455V6.45455H30.4421V5.45455ZM35.0092 5.45455H36.0092V4.45455H35.0092V5.45455ZM35.0092 6.30682V7.30682H36.0092V6.30682H35.0092ZM31.6172 6.30682H30.6172V7.30682H31.6172V6.30682ZM31.6172 5.45455V4.45455H30.6172V5.45455H31.6172ZM32.6058 3.88636V2.88636H31.6058V3.88636H32.6058ZM33.6115 3.88636H34.6115V2.88636H33.6115V3.88636ZM33.7351 10.7642L32.8701 11.2659L32.876 11.2762L32.8822 11.2864L33.7351 10.7642ZM34.0589 11.0455L33.7123 11.9834L33.7244 11.9879L33.7367 11.9921L34.0589 11.0455ZM34.7536 11.0966L34.9115 12.084L34.9307 12.081L34.9497 12.0772L34.7536 11.0966ZM34.924 11.0625L35.8993 10.8417L35.684 9.8907L34.7279 10.0819L34.924 11.0625ZM35.1286 11.9659L35.4797 12.9022L36.2965 12.5959L36.1039 11.7451L35.1286 11.9659ZM34.843 12.0426L34.6382 11.0638L34.6273 11.0661L34.6165 11.0686L34.843 12.0426ZM33.5433 11.902L33.131 12.813L33.1345 12.8146L33.5433 11.902ZM32.87 11.3438L32.0525 11.9197L32.0569 11.9259L32.87 11.3438ZM35.0092 5.45455H34.0092V6.30682H35.0092H36.0092V5.45455H35.0092ZM35.0092 6.30682V5.30682H31.6172V6.30682V7.30682H35.0092V6.30682ZM31.6172 6.30682H32.6172V5.45455H31.6172H30.6172V6.30682H31.6172ZM31.6172 5.45455V6.45455H35.0092V5.45455V4.45455H31.6172V5.45455ZM32.6058 3.88636V4.88636H33.6115V3.88636V2.88636H32.6058V3.88636ZM33.6115 3.88636H32.6115V10.125H33.6115H34.6115V3.88636H33.6115ZM33.6115 10.125H32.6115C32.6115 10.473 32.6562 10.8972 32.8701 11.2659L33.7351 10.7642L34.6001 10.2625C34.6298 10.3136 34.63 10.338 34.6242 10.3081C34.6188 10.2798 34.6115 10.2217 34.6115 10.125H33.6115ZM33.7351 10.7642L32.8822 11.2864C33.0637 11.5828 33.3362 11.8444 33.7123 11.9834L34.0589 11.0455L34.4056 10.1075C34.4565 10.1263 34.5009 10.1537 34.5357 10.1839C34.569 10.2128 34.5846 10.2365 34.5879 10.2421L33.7351 10.7642ZM34.0589 11.0455L33.7367 11.9921C33.9788 12.0745 34.2287 12.1136 34.4808 12.1136V11.1136V10.1136C34.4375 10.1136 34.4061 10.1073 34.3812 10.0988L34.0589 11.0455ZM34.4808 11.1136V12.1136C34.6195 12.1136 34.7683 12.1069 34.9115 12.084L34.7536 11.0966L34.5956 10.1091C34.5988 10.1086 34.5911 10.11 34.5697 10.1113C34.5489 10.1126 34.5197 10.1136 34.4808 10.1136V11.1136ZM34.7536 11.0966L34.9497 12.0772C35.0207 12.063 35.0775 12.0516 35.1201 12.0431L34.924 11.0625L34.7279 10.0819C34.6853 10.0904 34.6285 10.1018 34.5574 10.116L34.7536 11.0966ZM34.924 11.0625L33.9487 11.2833L34.1532 12.1867L35.1286 11.9659L36.1039 11.7451L35.8993 10.8417L34.924 11.0625ZM35.1286 11.9659L34.7774 11.0296C34.7818 11.028 34.7732 11.0314 34.7466 11.0385C34.7211 11.0454 34.6855 11.0539 34.6382 11.0638L34.843 12.0426L35.0479 13.0214C35.1901 12.9916 35.342 12.9538 35.4797 12.9022L35.1286 11.9659ZM34.843 12.0426L34.6165 11.0686C34.5954 11.0735 34.5234 11.0852 34.3786 11.0852V12.0852V13.0852C34.6087 13.0852 34.8463 13.0685 35.0696 13.0166L34.843 12.0426ZM34.3786 12.0852V11.0852C34.2426 11.0852 34.1031 11.057 33.9521 10.9894L33.5433 11.902L33.1345 12.8146C33.529 12.9913 33.9463 13.0852 34.3786 13.0852V12.0852ZM33.5433 11.902L33.9557 10.991C33.8522 10.9441 33.7638 10.8743 33.6831 10.7616L32.87 11.3438L32.0569 11.9259C32.3342 12.3132 32.6947 12.6155 33.131 12.813L33.5433 11.902ZM32.87 11.3438L33.6875 10.7678C33.6564 10.7237 33.6058 10.6231 33.6058 10.3977H32.6058H31.6058C31.6058 10.9337 31.7313 11.4638 32.0525 11.9197L32.87 11.3438ZM32.6058 10.3977H33.6058V3.88636H32.6058H31.6058V10.3977H32.6058ZM36.7138 14.4119L36.9219 13.4338L36.9119 13.4317L36.9019 13.4298L36.7138 14.4119ZM36.4368 14.3352L35.476 14.0581L35.2453 14.8575L35.9896 15.2297L36.4368 14.3352ZM36.6925 13.4489L36.9403 12.4801L36.0005 12.2396L35.7316 13.1717L36.6925 13.4489ZM37.3402 13.517L37.2497 12.5212L37.3402 13.517ZM37.8388 13.2656L37.1317 12.5585L37.1249 12.5653L37.1182 12.5722L37.8388 13.2656ZM38.2436 12.5455L39.1822 12.8904L39.1825 12.8897L38.2436 12.5455ZM38.4311 12.0341L39.37 12.3783L39.4964 12.0335L39.3696 11.6888L38.4311 12.0341ZM36.0107 5.45455V4.45455H34.5773L35.0721 5.7998L36.0107 5.45455ZM37.1016 5.45455L38.0465 5.12722L37.8135 4.45455H37.1016V5.45455ZM38.9084 10.6705L37.9635 10.9978L38.1965 11.6705H38.9084V10.6705ZM38.9766 10.6705V11.6705H39.6885L39.9215 10.9978L38.9766 10.6705ZM40.7834 5.45455V4.45455H40.0715L39.8385 5.12722L40.7834 5.45455ZM41.8743 5.45455L42.812 5.80193L43.3112 4.45455H41.8743V5.45455ZM39.0959 12.9545L38.1582 12.6072L38.1579 12.6077L39.0959 12.9545ZM38.6314 13.794L37.8632 13.1538L37.8592 13.1587L38.6314 13.794ZM37.9879 14.2926L37.5838 13.3779L37.5798 13.3797L37.9879 14.2926ZM37.1697 14.4545V13.4545C37.0528 13.4545 36.9726 13.4446 36.9219 13.4338L36.7138 14.4119L36.5057 15.39C36.722 15.4361 36.9458 15.4545 37.1697 15.4545V14.4545ZM36.7138 14.4119L36.9019 13.4298C36.8776 13.4251 36.8579 13.421 36.8422 13.4174C36.8263 13.4139 36.8163 13.4113 36.8113 13.4098C36.8089 13.4092 36.8083 13.409 36.8093 13.4093C36.8102 13.4096 36.8135 13.4106 36.8186 13.4125C36.8237 13.4143 36.8317 13.4173 36.8421 13.4216C36.8524 13.4259 36.8667 13.4322 36.884 13.4408L36.4368 14.3352L35.9896 15.2297C36.1766 15.3232 36.3917 15.3684 36.5257 15.3941L36.7138 14.4119ZM36.4368 14.3352L37.3976 14.6124L37.6533 13.726L36.6925 13.4489L35.7316 13.1717L35.476 14.0581L36.4368 14.3352ZM36.6925 13.4489L36.4446 14.4177C36.7643 14.4994 37.0985 14.5431 37.4307 14.5129L37.3402 13.517L37.2497 12.5212C37.2069 12.525 37.1093 12.5233 36.9403 12.4801L36.6925 13.4489ZM37.3402 13.517L37.4307 14.5129C37.8846 14.4717 38.2673 14.2625 38.5594 13.959L37.8388 13.2656L37.1182 12.5722C37.1145 12.5761 37.126 12.5632 37.1552 12.5485C37.1858 12.5331 37.2196 12.5239 37.2497 12.5212L37.3402 13.517ZM37.8388 13.2656L38.5459 13.9727C38.8438 13.6748 39.0402 13.2769 39.1822 12.8904L38.2436 12.5455L37.305 12.2005C37.2574 12.33 37.2142 12.4222 37.1791 12.4848C37.143 12.5489 37.1243 12.5659 37.1317 12.5585L37.8388 13.2656ZM38.2436 12.5455L39.1825 12.8897L39.37 12.3783L38.4311 12.0341L37.4922 11.6898L37.3047 12.2012L38.2436 12.5455ZM38.4311 12.0341L39.3696 11.6888L36.9492 5.10929L36.0107 5.45455L35.0721 5.7998L37.4926 12.3793L38.4311 12.0341ZM36.0107 5.45455V6.45455H37.1016V5.45455V4.45455H36.0107V5.45455ZM37.1016 5.45455L36.1567 5.78187L37.9635 10.9978L38.9084 10.6705L39.8533 10.3431L38.0465 5.12722L37.1016 5.45455ZM38.9084 10.6705V11.6705H38.9766V10.6705V9.67045H38.9084V10.6705ZM38.9766 10.6705L39.9215 10.9978L41.7283 5.78187L40.7834 5.45455L39.8385 5.12722L38.0317 10.3431L38.9766 10.6705ZM40.7834 5.45455V6.45455H41.8743V5.45455V4.45455H40.7834V5.45455ZM41.8743 5.45455L40.9366 5.10716L38.1582 12.6072L39.0959 12.9545L40.0336 13.3019L42.812 5.80193L41.8743 5.45455ZM39.0959 12.9545L38.1579 12.6077C38.063 12.8646 37.9594 13.0384 37.8632 13.1538L38.6314 13.794L39.3996 14.4342C39.6727 14.1065 39.8788 13.7206 40.0338 13.3013L39.0959 12.9545ZM38.6314 13.794L37.8592 13.1587C37.7648 13.2734 37.673 13.3385 37.5838 13.3779L37.9879 14.2926L38.3921 15.2073C38.7915 15.0308 39.1287 14.7636 39.4036 14.4294L38.6314 13.794ZM37.9879 14.2926L37.5798 13.3797C37.4845 13.4223 37.354 13.4545 37.1697 13.4545V14.4545V15.4545C37.5935 15.4545 38.0084 15.3789 38.3961 15.2055L37.9879 14.2926ZM44.2074 3.27273H45.2074V2.27273H44.2074V3.27273ZM44.2074 12V13H45.2074V12H44.2074ZM43.2017 12H42.2017V13H43.2017V12ZM43.2017 3.27273V2.27273H42.2017V3.27273H43.2017ZM44.2074 3.27273H43.2074V12H44.2074H45.2074V3.27273H44.2074ZM44.2074 12V11H43.2017V12V13H44.2074V12ZM43.2017 12H44.2017V3.27273H43.2017H42.2017V12H43.2017ZM43.2017 3.27273V4.27273H44.2074V3.27273V2.27273H43.2017V3.27273ZM47.1616 11.7188L46.6354 12.5692L46.6416 12.5729L47.1616 11.7188ZM46.109 10.5426L45.2086 10.9777L45.2116 10.9837L46.109 10.5426ZM46.109 7.00568L45.2077 6.57246L45.2067 6.57458L46.109 7.00568ZM47.1403 5.80398L47.6862 6.6418L47.6875 6.64095L47.1403 5.80398ZM49.7014 5.53977L50.0248 4.59354L49.7014 5.53977ZM50.609 6.09375L49.9251 6.8233L49.9292 6.82709L50.609 6.09375ZM51.261 7.09943L52.1934 6.7379V6.7379L51.261 7.09943ZM51.5039 9.06818V10.0682H52.5039V9.06818H51.5039ZM46.4585 9.06818H45.4585V10.0682H46.4585V9.06818ZM46.4585 8.19886V7.19886H45.4585V8.19886H46.4585ZM50.4812 8.19886V9.19886H51.4812V8.19886H50.4812ZM50.2596 7.21023L49.3651 7.65745L49.3687 7.66441L50.2596 7.21023ZM49.6374 6.52415L49.1058 7.37114L49.1098 7.37365L49.6374 6.52415ZM47.6516 6.57102L48.2119 7.39931L48.2137 7.3981L47.6516 6.57102ZM46.9826 7.33807L46.0866 6.89409V6.89409L46.9826 7.33807ZM47.0039 10.1889L46.108 10.6332L46.1125 10.6421L47.0039 10.1889ZM47.7241 10.9688L47.2202 11.8326L47.2262 11.836L47.7241 10.9688ZM49.5096 11.1222L49.8371 12.067L49.8444 12.0645L49.5096 11.1222ZM50.0678 10.7812L50.7617 11.5014L50.7684 11.4948L50.0678 10.7812ZM50.43 10.2102L50.7003 9.24744L49.8162 8.99926L49.4937 9.8591L50.43 10.2102ZM51.4016 10.483L52.3567 10.7794L52.6613 9.79789L51.6719 9.52017L51.4016 10.483ZM50.886 11.3523L51.6013 12.0511L51.6053 12.047L50.886 11.3523ZM49.9911 11.9318L50.3496 12.8654L50.3561 12.8628L49.9911 11.9318ZM48.7937 12.1364V11.1364C48.3134 11.1364 47.9563 11.0318 47.6815 10.8646L47.1616 11.7188L46.6416 12.5729C47.2817 12.9625 48.0126 13.1364 48.7937 13.1364V12.1364ZM47.1616 11.7188L47.6877 10.8684C47.4008 10.6908 47.175 10.4443 47.0065 10.1015L46.109 10.5426L45.2116 10.9837C45.5374 11.6466 46.0132 12.1842 46.6354 12.5691L47.1616 11.7188ZM46.109 10.5426L47.0094 10.1076C46.8422 9.76136 46.7425 9.32708 46.7425 8.77841H45.7425H44.7425C44.7425 9.57065 44.8872 10.3125 45.2086 10.9776L46.109 10.5426ZM45.7425 8.77841H46.7425C46.7425 8.23008 46.842 7.79108 47.0113 7.43678L46.109 7.00568L45.2067 6.57458C44.8874 7.24301 44.7425 7.98582 44.7425 8.77841H45.7425ZM46.109 7.00568L47.0103 7.4389C47.1853 7.07492 47.4121 6.82041 47.6862 6.6418L47.1403 5.80398L46.5943 4.96615C45.9877 5.36141 45.5271 5.90803 45.2077 6.57246L46.109 7.00568ZM47.1403 5.80398L47.6875 6.64095C47.9495 6.46964 48.2715 6.36932 48.6914 6.36932V5.36932V4.36932C47.9294 4.36932 47.2174 4.55877 46.593 4.96701L47.1403 5.80398ZM48.6914 5.36932V6.36932C48.9189 6.36932 49.1464 6.40687 49.3779 6.486L49.7014 5.53977L50.0248 4.59354C49.5915 4.4454 49.1457 4.36932 48.6914 4.36932V5.36932ZM49.7014 5.53977L49.3779 6.486C49.5676 6.55087 49.749 6.65823 49.9251 6.82329L50.609 6.09375L51.293 5.36421C50.9236 5.01791 50.4999 4.75595 50.0248 4.59354L49.7014 5.53977ZM50.609 6.09375L49.9292 6.82709C50.0701 6.95779 50.2105 7.1563 50.3286 7.46096L51.261 7.09943L52.1934 6.7379C51.9876 6.20734 51.6934 5.73539 51.2889 5.36041L50.609 6.09375ZM51.261 7.09943L50.3286 7.46096C50.4328 7.72969 50.5039 8.11287 50.5039 8.64205H51.5039H52.5039C52.5039 7.94963 52.413 7.3044 52.1934 6.7379L51.261 7.09943ZM51.5039 8.64205H50.5039V9.06818H51.5039H52.5039V8.64205H51.5039ZM51.5039 9.06818V8.06818H46.4585V9.06818V10.0682H51.5039V9.06818ZM46.4585 9.06818H47.4585V8.19886H46.4585H45.4585V9.06818H46.4585ZM46.4585 8.19886V9.19886H50.4812V8.19886V7.19886H46.4585V8.19886ZM50.4812 8.19886H51.4812C51.4812 7.69321 51.3791 7.2045 51.1505 6.75604L50.2596 7.21023L49.3687 7.66441C49.4355 7.7955 49.4812 7.96588 49.4812 8.19886H50.4812ZM50.2596 7.21023L51.154 6.76301C50.9281 6.31124 50.5953 5.94186 50.165 5.67465L49.6374 6.52415L49.1098 7.37365C49.2194 7.44166 49.3013 7.52966 49.3652 7.65744L50.2596 7.21023ZM49.6374 6.52415L50.169 5.67716C49.7195 5.39499 49.2137 5.27273 48.6914 5.27273V6.27273V7.27273C48.8964 7.27273 49.0213 7.31808 49.1058 7.37113L49.6374 6.52415ZM48.6914 6.27273V5.27273C48.1178 5.27273 47.5693 5.41791 47.0895 5.74395L47.6516 6.57102L48.2137 7.3981C48.3192 7.3264 48.4639 7.27273 48.6914 7.27273V6.27273ZM47.6516 6.57102L47.0913 5.74274C46.6574 6.03628 46.3191 6.42474 46.0866 6.89409L46.9826 7.33807L47.8786 7.78205C47.9586 7.62072 48.0663 7.49781 48.2119 7.39931L47.6516 6.57102ZM46.9826 7.33807L46.0866 6.89409C45.8602 7.35099 45.7482 7.84147 45.7482 8.35227H46.7482H47.7482C47.7482 8.14149 47.7925 7.95583 47.8786 7.78205L46.9826 7.33807ZM46.7482 8.35227H45.7482V8.93182H46.7482H47.7482V8.35227H46.7482ZM46.7482 8.93182H45.7482C45.7482 9.5373 45.8523 10.1174 46.108 10.6332L47.0039 10.1889L47.8998 9.74467C47.8146 9.57293 47.7482 9.31497 47.7482 8.93182H46.7482ZM47.0039 10.1889L46.1125 10.6421C46.3659 11.1405 46.7346 11.5493 47.2202 11.8325L47.7241 10.9688L48.2279 10.105C48.0999 10.0303 47.9885 9.91912 47.8953 9.73577L47.0039 10.1889ZM47.7241 10.9688L47.2262 11.836C47.7058 12.1113 48.239 12.233 48.7937 12.233V11.233V10.233C48.5359 10.233 48.356 10.1784 48.2219 10.1015L47.7241 10.9688ZM48.7937 11.233V12.233C49.1507 12.233 49.5024 12.183 49.8371 12.067L49.5096 11.1222L49.182 10.1773C49.0906 10.209 48.9651 10.233 48.7937 10.233V11.233ZM49.5096 11.1222L49.8444 12.0645C50.1868 11.9428 50.4972 11.7562 50.7617 11.5013L50.0678 10.7812L49.3739 10.0612C49.3259 10.1075 49.2642 10.1481 49.1748 10.1799L49.5096 11.1222ZM50.0678 10.7812L50.7684 11.4948C51.0396 11.2286 51.2355 10.9102 51.3664 10.5614L50.43 10.2102L49.4937 9.8591C49.4541 9.96476 49.4086 10.0271 49.3672 10.0677L50.0678 10.7812ZM50.43 10.2102L50.1598 11.173L51.1314 11.4457L51.4016 10.483L51.6719 9.52017L50.7003 9.24744L50.43 10.2102ZM51.4016 10.483L50.4466 10.1866C50.391 10.3656 50.3004 10.5192 50.1667 10.6575L50.886 11.3523L51.6053 12.047C51.9546 11.6854 52.2077 11.2594 52.3567 10.7794L51.4016 10.483ZM50.886 11.3523L50.1707 10.6534C50.0381 10.7892 49.8632 10.9079 49.6262 11.0008L49.9911 11.9318L50.3561 12.8628C50.8293 12.6773 51.2509 12.4097 51.6013 12.0511L50.886 11.3523ZM49.9911 11.9318L49.6326 10.9983C49.4091 11.0841 49.1342 11.1364 48.7937 11.1364V12.1364V13.1364C49.3395 13.1364 49.8629 13.0523 50.3496 12.8654L49.9911 11.9318Z" fill="black" mask="url(#path-1-outside-1_0_1)"/>
</g>
</svg>
